<?xml version="1.0" standalone="no"?>
<!DOCTYPE svg PUBLIC "-//W3C//DTD SVG 20010904//EN"
 "http://www.w3.org/TR/2001/REC-SVG-20010904/DTD/svg10.dtd">
<svg version="1.0" xmlns="http://www.w3.org/2000/svg"
 width="512.000000pt" height="512.000000pt" viewBox="0 0 512.000000 512.000000"
 preserveAspectRatio="xMidYMid meet">

<g transform="translate(0.000000,512.000000) scale(0.100000,-0.100000)"
fill="#000000" stroke="none">
<path d="M2113 4037 l-751 -382 -676 -1156 c-372 -637 -676 -1162 -676 -1168
0 -17 1484 -15 1498 2 15 18 1371 3087 1363 3086 -3 0 -344 -172 -758 -382z"/>
<path d="M3087 4153 c-29 -51 -768 -1757 -764 -1766 3 -7 246 -320 540 -697
l536 -685 -1070 -3 -1069 -2 0 -150 0 -150 1926 0 c1630 0 1925 2 1921 14 -6
15 -1982 3400 -2002 3429 -7 10 -15 15 -18 10z"/>
</g>
</svg>
