<?xml version="1.0" standalone="no"?>
<!DOCTYPE svg PUBLIC "-//W3C//DTD SVG 20010904//EN"
 "http://www.w3.org/TR/2001/REC-SVG-20010904/DTD/svg10.dtd">
<svg version="1.0" xmlns="http://www.w3.org/2000/svg"
 width="512.000000pt" height="512.000000pt" viewBox="0 0 512.000000 512.000000"
 preserveAspectRatio="xMidYMid meet">

<g transform="translate(0.000000,512.000000) scale(0.100000,-0.100000)"
fill="#000000" stroke="none">
<path d="M570 5111 c-167 -51 -263 -221 -214 -377 12 -38 14 -59 7 -61 -6 -2
-31 -17 -56 -33 -109 -69 -164 -219 -122 -335 8 -22 15 -43 15 -47 0 -3 -24
-20 -54 -36 -167 -95 -194 -328 -53 -464 l44 -43 -24 -50 c-56 -121 -15 -277
95 -359 l53 -39 -3 -427 -3 -426 -117 -195 c-64 -108 -122 -215 -128 -240 -7
-30 -10 -255 -8 -729 l3 -685 24 -45 c68 -130 207 -202 331 -170 25 6 54 14
65 16 16 4 25 -5 44 -41 62 -118 216 -182 340 -141 27 9 52 16 54 16 3 0 19
-24 35 -54 76 -133 244 -181 388 -111 30 15 68 44 85 65 l31 38 51 -24 c58
-27 159 -33 218 -12 54 18 116 65 149 113 l31 45 422 0 422 0 50 -28 c28 -16
120 -70 205 -121 85 -50 172 -96 192 -102 24 -6 290 -9 725 -7 l688 3 50 27
c127 67 197 205 165 328 -6 25 -14 54 -16 65 -4 16 5 25 41 44 118 62 182 216
141 340 -9 27 -16 52 -16 54 0 3 24 19 54 35 167 95 194 328 53 464 l-44 43
24 50 c32 70 32 171 -1 242 -25 53 -93 128 -127 138 -18 6 -19 21 -19 431 0
398 1 427 19 462 10 20 64 113 120 206 56 93 106 186 111 207 7 25 10 280 8
726 l-3 688 -27 50 c-72 136 -214 201 -353 160 -35 -10 -61 -13 -63 -7 -1 5
-16 30 -32 55 -69 109 -219 164 -335 122 -22 -8 -43 -15 -47 -15 -3 0 -20 24
-36 54 -95 167 -328 194 -464 53 l-43 -44 -50 24 c-56 26 -158 31 -216 11 -56
-19 -120 -68 -148 -114 l-26 -43 -421 -1 -421 0 -54 28 c-30 15 -124 69 -209
120 -85 51 -170 97 -190 102 -42 12 -1372 12 -1410 1z m1567 -281 c112 -66
220 -124 244 -129 26 -6 215 -11 452 -11 l407 0 0 -377 c0 -357 -1 -375 -17
-361 -155 132 -205 158 -307 158 -159 0 -274 -126 -264 -289 l4 -71 -171 0
c-220 0 -226 -3 -390 -170 -66 -67 -267 -265 -447 -441 -323 -316 -327 -319
-368 -319 -59 0 -100 41 -100 102 0 41 7 53 106 173 147 179 164 204 164 237
0 17 -10 39 -25 53 l-24 25 -513 0 c-482 0 -516 2 -555 19 -97 45 -99 176 -3
226 24 12 79 15 290 15 l262 0 29 29 c36 36 37 70 5 108 l-24 28 -321 5 -321
5 -37 38 c-34 33 -38 43 -38 87 0 40 5 54 29 79 17 17 46 36 65 41 20 5 165
10 323 10 157 0 294 3 303 6 25 10 47 62 40 94 -14 62 -23 65 -287 70 l-240 5
-28 32 c-38 43 -47 91 -24 138 33 70 32 69 387 75 l319 5 25 29 c20 24 24 36
19 65 -11 68 -22 71 -262 71 -234 0 -263 5 -302 55 -49 62 -34 134 38 182 l33
23 662 0 662 0 200 -120z m1914 84 c16 -15 34 -44 39 -63 5 -20 10 -165 10
-323 0 -157 3 -294 6 -303 8 -19 55 -45 83 -45 11 0 33 11 48 24 l28 24 5 242
5 242 32 28 c43 39 91 47 138 24 74 -35 75 -41 75 -379 0 -220 4 -307 13 -325
27 -54 94 -63 137 -20 19 19 20 34 20 235 0 234 5 264 54 303 60 47 138 31
183 -37 l23 -34 0 -662 0 -662 -120 -200 c-66 -112 -124 -220 -129 -244 -6
-26 -11 -215 -11 -451 l0 -408 -376 0 -376 0 38 47 c21 27 51 64 67 82 102
119 93 291 -20 391 -59 52 -127 74 -209 67 l-64 -5 0 172 c0 159 -2 174 -24
221 -13 28 -51 77 -86 110 -34 33 -232 234 -441 447 -376 383 -379 386 -379
428 0 60 41 100 102 100 42 0 53 -7 189 -118 79 -64 155 -125 169 -135 35 -24
76 -21 105 8 l25 24 0 513 c0 482 2 516 19 555 45 97 176 99 226 3 12 -24 15
-79 15 -290 l0 -262 29 -29 c18 -17 40 -29 56 -29 16 0 38 12 56 29 l29 29 0
304 c0 275 2 307 18 337 40 74 135 91 193 35z m-863 -1734 l392 -398 -1 -228
-1 -229 -398 -392 -397 -393 -229 1 -229 1 -392 398 -393 397 1 229 1 229 398
393 398 392 228 -1 229 0 393 -399z m-2044 13 c-21 -27 -51 -63 -66 -81 -54
-63 -72 -111 -72 -192 0 -64 4 -83 29 -128 54 -100 135 -144 254 -141 l76 2 5
-179 c4 -159 7 -183 27 -219 12 -22 81 -98 153 -170 72 -71 271 -272 441 -447
300 -307 309 -317 309 -356 0 -67 -60 -117 -127 -104 -12 2 -79 51 -150 109
-177 146 -202 163 -235 163 -17 0 -39 -10 -53 -25 l-25 -24 0 -510 c0 -568 0
-571 -65 -611 -43 -26 -104 -26 -139 1 -54 42 -56 56 -56 339 l0 262 -29 29
c-36 36 -70 37 -108 5 l-28 -24 -5 -321 -5 -321 -38 -37 c-33 -34 -43 -38 -87
-38 -40 0 -54 5 -79 29 -17 17 -36 46 -41 65 -5 20 -10 165 -10 323 0 157 -3
294 -6 303 -8 19 -55 45 -83 45 -11 0 -33 -11 -48 -24 l-28 -24 -5 -242 -5
-242 -32 -28 c-43 -39 -91 -47 -138 -24 -74 35 -75 41 -75 379 0 220 -4 307
-13 325 -27 54 -94 63 -137 20 -19 -19 -20 -34 -20 -235 0 -234 -5 -264 -54
-303 -60 -47 -138 -31 -183 37 l-23 34 0 662 0 662 120 200 c66 112 124 220
129 244 6 26 11 215 11 452 l0 407 376 0 376 0 -38 -47z m2760 -914 c27 -22
45 -70 38 -106 -2 -12 -57 -86 -121 -165 -64 -79 -124 -154 -134 -168 -24 -35
-21 -76 8 -105 l24 -25 513 0 c482 0 516 -2 555 -19 97 -45 99 -176 3 -226
-24 -12 -79 -15 -290 -15 l-262 0 -29 -29 c-36 -36 -37 -70 -5 -108 l24 -28
321 -5 321 -5 37 -38 c34 -33 38 -43 38 -87 0 -40 -5 -54 -29 -79 -17 -17 -46
-36 -65 -41 -20 -5 -165 -10 -323 -10 -157 0 -294 -3 -303 -6 -25 -10 -47 -62
-40 -94 14 -62 23 -65 287 -70 l240 -5 28 -32 c38 -43 47 -91 24 -138 -33 -70
-32 -69 -387 -75 l-319 -5 -25 -29 c-20 -24 -24 -36 -19 -65 11 -68 22 -71
262 -71 233 0 263 -5 302 -54 47 -60 31 -138 -37 -183 l-34 -23 -662 0 -662 0
-200 120 c-112 66 -220 124 -244 129 -26 6 -215 11 -451 11 l-408 0 0 376 0
376 38 -31 c21 -16 60 -48 87 -70 152 -126 369 -81 445 92 16 37 21 65 19 120
l-2 72 179 5 c219 6 216 5 369 160 61 61 261 260 447 441 327 320 337 329 376
329 25 0 49 -8 66 -21z"/>
</g>
</svg>
