<?xml version="1.0" standalone="no"?>
<!DOCTYPE svg PUBLIC "-//W3C//DTD SVG 20010904//EN"
 "http://www.w3.org/TR/2001/REC-SVG-20010904/DTD/svg10.dtd">
<svg version="1.0" xmlns="http://www.w3.org/2000/svg"
 width="512.000000pt" height="512.000000pt" viewBox="0 0 512.000000 512.000000"
 preserveAspectRatio="xMidYMid meet">

<g transform="translate(0.000000,512.000000) scale(0.100000,-0.100000)"
fill="#000000" stroke="none">
<path d="M2038 4563 l-28 -4 0 -108 0 -108 -54 -15 -54 -15 -53 94 c-30 51
-57 93 -61 93 -40 0 -327 -168 -328 -193 0 -5 23 -46 50 -93 28 -47 50 -88 50
-91 0 -4 -16 -24 -36 -44 l-36 -37 -93 54 c-52 30 -96 54 -98 54 -21 0 -187
-290 -187 -326 0 -7 41 -36 91 -64 83 -48 90 -54 84 -77 -3 -14 -9 -38 -12
-54 l-5 -29 -109 0 -109 0 -6 -27 c-10 -39 -10 -237 -1 -305 l8 -58 110 0 c60
0 109 -1 109 -2 0 -2 7 -24 15 -50 l14 -47 -92 -52 c-51 -29 -93 -53 -95 -55
-8 -6 63 -143 112 -217 90 -135 70 -128 179 -64 l95 55 36 -37 36 -36 -50 -87
c-28 -48 -50 -92 -50 -97 0 -24 286 -191 326 -191 5 0 33 42 62 93 l52 94 48
-12 47 -12 3 -111 3 -110 94 -7 c87 -7 218 -1 273 12 21 5 22 9 22 113 l0 108
42 10 c23 6 45 9 49 7 3 -3 28 -43 55 -90 27 -47 55 -85 62 -85 38 0 322 168
322 190 0 5 -22 47 -50 95 -27 48 -50 90 -50 94 0 10 54 61 64 61 5 0 49 -23
98 -52 l90 -52 29 35 c39 47 113 173 143 241 l26 58 -23 14 c-12 7 -55 33 -95
56 -57 32 -72 46 -67 58 4 10 9 29 12 45 l6 27 108 0 c60 0 111 4 114 10 10
17 18 242 11 313 l-8 67 -108 0 -109 0 -11 41 c-6 23 -9 46 -7 53 2 6 43 33
91 59 47 27 86 53 86 59 0 36 -150 304 -181 323 -5 4 -50 -17 -100 -46 l-91
-51 -34 33 c-19 18 -34 37 -34 42 0 4 23 47 50 94 42 71 49 88 38 100 -34 41
-277 183 -313 183 -6 0 -34 -41 -63 -91 -35 -60 -58 -89 -67 -85 -7 2 -30 8
-49 12 l-36 6 0 109 c0 72 -4 110 -12 115 -13 9 -309 15 -350 7z m309 -514
c71 -17 201 -82 258 -129 105 -88 187 -215 220 -345 32 -123 17 -299 -35 -420
-75 -174 -254 -322 -450 -371 -87 -22 -259 -15 -350 15 -194 62 -349 217 -415
416 -125 370 110 765 500 841 76 15 194 12 272 -7z"/>
<path d="M3346 2867 c-33 -68 -109 -190 -155 -247 l-20 -25 677 -5 677 -5 3
-757 2 -758 175 0 175 0 0 843 c0 586 -3 854 -11 882 -15 52 -82 119 -134 134
-27 7 -247 11 -697 11 l-658 0 -34 -73z"/>
<path d="M571 2759 c-67 -17 -221 -84 -221 -96 0 -3 14 -43 30 -90 17 -46 30
-89 30 -94 0 -5 -11 -16 -24 -24 -23 -15 -28 -14 -105 24 -44 23 -85 41 -90
41 -15 0 -100 -134 -126 -199 -14 -33 -27 -77 -31 -98 l-6 -38 86 -42 c79 -39
86 -45 86 -72 0 -28 -4 -31 -96 -61 l-96 -32 7 -52 c9 -66 55 -202 89 -259
l26 -46 87 30 c48 16 92 29 98 29 6 0 17 -11 24 -23 11 -21 8 -33 -29 -107
l-42 -84 33 -28 c63 -52 250 -138 301 -138 4 0 26 39 48 86 39 84 40 85 72 82
32 -3 34 -6 63 -90 l30 -88 35 0 c20 0 68 9 108 20 76 21 212 84 212 98 0 5
-13 47 -29 94 l-29 86 23 22 22 21 87 -43 87 -43 29 35 c40 48 94 152 119 229
12 35 21 66 21 68 0 1 -41 23 -91 48 -87 44 -91 47 -84 73 4 15 8 28 9 30 2 1
41 15 87 31 l84 28 -2 54 c-4 90 -86 299 -118 299 -6 0 -49 -13 -96 -29 l-84
-28 -17 23 c-17 21 -16 25 23 110 l41 88 -34 28 c-46 39 -172 103 -240 122
-31 9 -58 16 -60 16 -2 0 -23 -40 -47 -88 -43 -87 -44 -89 -74 -83 -28 6 -33
13 -60 94 -28 85 -29 87 -60 86 -18 0 -65 -9 -106 -20z m354 -388 c187 -92
266 -323 173 -505 -33 -65 -112 -141 -181 -172 -54 -26 -73 -29 -157 -29 -82
0 -103 4 -152 27 -267 125 -300 485 -60 650 111 76 258 87 377 29z"/>
<path d="M1660 1661 l0 -591 175 0 175 0 0 543 0 543 -68 12 c-38 6 -109 25
-158 42 -49 18 -97 34 -106 37 -17 5 -18 -27 -18 -586z"/>
<path d="M1430 799 c0 -119 3 -158 16 -185 33 -69 -108 -64 1824 -64 1924 0
1792 -4 1825 60 11 22 15 65 15 185 l0 155 -739 0 -740 0 -3 -52 -3 -53 -329
-3 c-234 -2 -333 1 -342 9 -8 7 -14 30 -14 55 l0 44 -755 0 -755 0 0 -151z
m3438 -1 c7 -7 12 -28 12 -48 0 -51 -14 -60 -92 -60 -72 0 -88 11 -88 60 0 49
16 60 88 60 40 0 73 -5 80 -12z"/>
</g>
</svg>
