<?xml version="1.0" standalone="no"?>
<!DOCTYPE svg PUBLIC "-//W3C//DTD SVG 20010904//EN"
 "http://www.w3.org/TR/2001/REC-SVG-20010904/DTD/svg10.dtd">
<svg version="1.0" xmlns="http://www.w3.org/2000/svg"
 width="256.000000pt" height="256.000000pt" viewBox="0 0 256.000000 256.000000"
 preserveAspectRatio="xMidYMid meet">

<g transform="translate(0.000000,256.000000) scale(0.100000,-0.100000)"
fill="#000000" stroke="none">
<path d="M175 2385 c-5 -2 -22 -6 -37 -9 -39 -9 -98 -64 -119 -111 -18 -38
-19 -92 -19 -985 0 -893 1 -947 19 -985 21 -46 79 -101 119 -112 35 -10 2249
-10 2284 0 40 11 98 66 119 112 18 38 19 92 19 983 0 1031 3 981 -58 1045 -63
67 28 62 -1202 64 -613 1 -1119 0 -1125 -2z m2203 -177 c8 -8 12 -52 12 -130
l0 -118 -1110 0 -1110 0 0 118 c0 78 4 122 12 130 17 17 2179 17 2196 0z m12
-1131 c0 -541 -3 -716 -12 -725 -17 -17 -2179 -17 -2196 0 -9 9 -12 184 -12
725 l0 713 1110 0 1110 0 0 -713z"/>
<path d="M317 2132 c-21 -23 -22 -66 -1 -86 36 -37 104 -7 104 46 0 51 -69 78
-103 40z"/>
<path d="M520 2130 c-25 -25 -25 -51 -2 -80 35 -43 112 -15 112 41 0 27 -35
59 -65 59 -14 0 -34 -9 -45 -20z"/>
<path d="M727 2132 c-37 -41 -11 -102 43 -102 36 0 60 23 60 59 0 54 -68 82
-103 43z"/>
<path d="M1515 1571 c-11 -5 -27 -17 -36 -27 -13 -16 -463 -794 -498 -861 -26
-50 0 -105 56 -119 60 -16 62 -13 334 456 142 245 258 455 258 468 1 36 -17
62 -54 78 -19 8 -36 14 -37 13 -2 0 -12 -4 -23 -8z"/>
<path d="M547 1292 c-171 -171 -187 -190 -187 -222 0 -31 16 -51 188 -222 162
-163 192 -188 218 -188 61 0 108 64 83 113 -6 12 -72 84 -147 160 l-137 137
137 138 c75 75 141 147 147 160 25 48 -20 112 -78 112 -34 0 -50 -14 -224
-188z"/>
<path d="M1733 1458 c-28 -31 -36 -63 -22 -90 6 -13 72 -85 147 -160 l137
-138 -137 -137 c-75 -76 -141 -148 -147 -160 -25 -49 22 -113 83 -113 26 0 56
25 218 188 172 172 188 191 188 222 0 32 -16 51 -188 223 -173 173 -190 187
-223 187 -24 0 -42 -7 -56 -22z"/>
</g>
</svg>
